<svg width="430" height="516" viewBox="0 0 430 516" fill="none" xmlns="http://www.w3.org/2000/svg">
<path d="M253.361 387.858C251.737 396.862 246.748 401.554 240.84 408.54C240.84 408.54 254.772 395.299 262.767 385.965C270.224 377.259 274.311 372.225 280.53 362.596C289.201 349.172 292.637 340.735 298.947 326.052C302.513 317.755 307.342 304.503 307.342 304.503C307.342 304.503 303.94 318.397 301.176 327.128C297.337 339.255 295.281 346.192 289.613 357.581C285.257 366.335 276.788 379.086 276.788 379.086L258.877 402.588L268.628 392.841C268.628 392.841 299.192 386.863 315.786 376.686C328.79 368.709 337.321 364.408 345.1 350.864C352.672 337.682 354.417 329.532 356.169 313.544C357.559 300.854 357.143 292.943 356.765 280.663C356.317 266.175 354.61 256.714 350.147 242.995C347.313 234.286 340.672 220.726 340.672 220.726C340.672 220.726 319.047 228.179 308.524 233.841C307.329 234.484 302.605 235.879 301.474 236.481C287.727 243.796 282.013 247.726 271.124 260.112C266.225 265.684 262.917 270.325 260.054 275.434C257.701 279.636 255.648 284.154 253.26 289.767C248.311 301.398 245.533 308.343 244.578 320.946C244.303 324.58 244.298 327.402 244.447 330.251C244.587 332.912 244.861 335.597 245.176 338.988C246.437 352.559 252.377 373.138 252.377 373.138C252.377 373.138 254.535 381.354 253.361 387.858Z" fill="#292E18"/>
<path d="M175.819 355.69L178.784 358.254C178.784 358.254 178.397 335.96 178.768 321.683C179.389 297.783 181.078 284.44 183.065 260.615C183.279 258.046 183.622 254.039 183.622 254.039C183.622 254.039 185.1 262.147 185.604 267.396C186.669 278.499 185.873 284.821 185.209 295.955C184.524 307.43 182.155 313.728 182.072 325.224C181.985 337.262 185.06 355.904 185.06 355.904C185.06 355.904 191.917 353.072 196.069 350.78C202.122 347.439 210.634 340.715 210.634 340.715L212.56 339.384C212.56 339.384 218.501 333.658 221.733 329.501C226.901 322.855 232.465 310.807 232.465 310.807L233.286 307.233C233.286 307.233 237.751 293.986 238.353 285.163C238.933 276.664 238.908 271.606 236.531 263.424C235.624 260.303 233.612 255.629 233.612 255.629C233.612 255.629 230.549 246.784 228.231 241.258C226.236 236.502 225.361 233.687 222.718 229.258C218.136 221.579 214.005 218.29 207.536 212.116C201.543 206.397 191.101 198.707 191.101 198.707C191.101 198.707 186.942 197.491 181.353 200.207C173.557 203.997 166.358 211.542 160.641 218.058C159.509 219.348 158.42 220.513 157.366 221.6C156.105 222.902 154.895 224.094 153.727 225.259C150.166 228.812 146.99 232.121 143.899 237.575C139.269 245.747 135.999 260.292 135.999 260.292L134.772 263.82C134.772 263.82 131.983 273.499 131.615 279.88C131.201 287.047 131.923 291.147 133.371 298.178C135.46 308.326 137.5 314.047 142.674 323.024C146.116 328.994 153.1 337.259 153.1 337.259L167.052 346.558C167.052 346.558 169.302 350.5 170.842 351.912C173.008 353.899 174.134 353.283 175.819 355.69Z" fill="#292E18"/>
<path d="M175.858 421.844L180.256 422.87L179.354 392.797L174.526 379.902C174.526 379.902 162.318 369.851 154.564 362.658C146.746 355.405 134.73 342.951 134.73 342.951L124.516 331.596C124.516 331.596 115.343 326.707 111.13 321.781C108.395 318.583 107.347 316.384 105.418 312.643C101.003 304.078 99.1172 289.701 99.1172 289.701C99.1172 289.701 96.476 286.96 95.0617 284.985C90.9101 279.189 89.4235 274.976 88.6594 267.888C88.3894 265.382 88.9976 263.965 88.5516 261.485C88.0444 258.664 85.9601 254.564 85.9601 254.564L89.8206 256.195C89.8206 256.195 85.3506 243.172 85.5263 241.169C85.7021 239.167 84.7073 238.682 84.8831 236.68L76.998 215.623L57.2935 205.515C57.2935 205.515 58.6537 208.162 60.4899 212.021C60.4899 212.021 65.6233 219.614 68.1054 224.193C71.5948 230.632 72.6762 233.641 74.2693 240.655C75.2999 245.192 75.8947 247.333 76.2553 251.972C76.7106 257.831 76.4001 261.08 76.3078 267.019C76.1697 275.896 74.6498 280.859 74.3661 289.732C74.0573 299.388 73.7965 304.998 75.9294 314.42C78.3936 325.305 81.0144 331.403 87.2433 340.664C92.9248 349.111 97.1013 353.398 105.216 359.546C109.95 363.132 118.147 367.55 118.147 367.55C118.147 367.55 133.49 384.305 144.027 394.328C155.933 405.652 175.858 421.844 175.858 421.844Z" fill="#292E18"/>
<path d="M180.028 432.982L175.858 421.844C175.858 421.844 155.933 405.652 144.027 394.328C133.49 384.305 118.147 367.55 118.147 367.55C118.147 367.55 109.95 363.132 105.216 359.546C97.1013 353.398 92.9248 349.111 87.2433 340.664C81.0144 331.403 78.3936 325.305 75.9294 314.42C73.7965 304.998 74.0573 299.388 74.3661 289.732C74.6498 280.859 76.1697 275.896 76.3078 267.019C76.4001 261.08 76.7106 257.831 76.2553 251.972C75.8947 247.333 75.2999 245.192 74.2693 240.655C72.6762 233.641 71.5948 230.632 68.1054 224.193C65.6233 219.614 60.4899 212.021 60.4899 212.021C63.1121 217.531 66.7051 225.511 68.6939 231.779C72.1606 242.705 73.9083 249.091 74.5929 260.534C75.341 273.037 70.9761 279.372 71.514 292.46C72.0851 306.358 72.4404 314.145 77.89 327.024C83.3869 340.015 86.8707 347.176 97.8991 356.743C102.598 360.819 109.947 366.193 109.947 366.193L112.216 369.771L132.378 390.314C132.378 390.314 151.124 411.844 165.137 422.522C170.609 426.692 180.028 432.982 180.028 432.982Z" fill="#CABD90"/>
<path d="M178.784 358.254L182.84 379.794C182.84 379.794 183.031 388.34 184.628 393.494C185.171 395.245 185.259 396.364 186.274 397.891C187.609 399.897 188.682 401.451 191.071 401.776C193.251 402.072 196.346 399.8 196.346 399.8C196.346 399.8 193.96 397.299 192.722 395.476C189.823 391.208 189.489 388.069 188.089 383.104C185.905 375.358 185.122 362.71 185.122 362.71L185.06 355.904C185.06 355.904 181.985 337.262 182.072 325.224C182.155 313.728 184.524 307.43 185.209 295.955C185.873 284.821 186.669 278.499 185.604 267.396C185.1 262.147 183.622 254.039 183.622 254.039C183.622 254.039 183.279 258.046 183.065 260.615C181.078 284.44 179.389 297.783 178.768 321.683C178.397 335.96 178.784 358.254 178.784 358.254Z" fill="#CABD90"/>
<path d="M205.028 447.974C206.106 450.06 209.759 451.683 209.759 451.683L258.877 402.588L276.788 379.086C276.788 379.086 285.257 366.335 289.613 357.581C295.281 346.192 297.337 339.255 301.176 327.128C303.94 318.397 307.342 304.503 307.342 304.503C307.342 304.503 302.513 317.755 298.947 326.052C292.637 340.735 289.201 349.172 280.53 362.596C274.311 372.225 270.224 377.259 262.767 385.965C254.772 395.299 240.84 408.54 240.84 408.54C229.715 421.693 209.076 439.151 209.076 439.151C209.076 439.151 206.664 439.503 205.559 440.468C203.346 442.401 203.679 445.363 205.028 447.974Z" fill="#CABD90"/>
<path d="M153.1 337.259C153.1 337.259 146.052 334.972 141.837 332.836C136.748 330.257 129.648 324.786 129.648 324.786C129.648 324.786 126.766 322.106 126.068 319.819C125.031 316.425 127.344 314.423 127.895 310.916C128.642 306.16 128.837 303.451 129.032 298.641C129.15 295.723 129.573 294.999 129.099 291.164C128.341 285.03 122.885 274.567 122.885 274.567C122.885 274.567 111.352 264.958 102.567 260.58C98.1034 258.355 89.8206 256.195 89.8206 256.195L85.9601 254.564C85.9601 254.564 88.0444 258.664 88.5516 261.485C88.9976 263.965 88.3894 265.382 88.6594 267.888C89.4235 274.976 90.9101 279.189 95.0617 284.985C96.476 286.96 99.1172 289.701 99.1172 289.701C99.1172 289.701 100.939 291.57 101.863 292.951C103.768 295.797 103.737 297.957 104.938 301.164C106.752 306.008 106.316 309.558 109.583 313.569C111.984 316.515 117.332 319.459 117.332 319.459L130.085 330.547L136.984 335.189L139.027 336.564L151.971 342.038L167.052 346.558L153.1 337.259Z" fill="#788B5A"/>
<path d="M102.567 260.58C111.352 264.958 122.885 274.567 122.885 274.567L120.587 246.304C120.587 246.304 118.837 241.39 115.365 236.484C112.903 233.005 109.753 229.153 106.193 225.599C99.4502 218.866 91.2397 213.206 83.4684 213.2C82.0158 213.198 80.2518 213.901 78.9328 214.55C77.8019 215.106 76.998 215.623 76.998 215.623L84.8831 236.68C84.7073 238.682 85.7021 239.167 85.5263 241.169C85.3506 243.172 89.8206 256.195 89.8206 256.195C89.8206 256.195 98.1034 258.355 102.567 260.58Z" fill="#292E18"/>
<path d="M182.114 438.552C183.665 461.454 186.298 501.479 186.298 501.479L211.782 491.936L209.759 451.683C209.759 451.683 206.106 450.06 205.028 447.974C203.679 445.363 203.346 442.401 205.559 440.468C206.664 439.503 209.076 439.151 209.076 439.151L207.101 370.709C207.101 370.709 205.659 372.441 204.467 373.209C203.106 374.086 202.203 374.621 200.584 374.663C198.305 374.722 195.331 372.111 195.331 372.111C195.331 372.111 200.449 367.328 203.207 363.813C207.996 357.707 214.055 354.039 212.758 346.388C212.363 344.056 210.634 340.715 210.634 340.715C210.634 340.715 202.122 347.439 196.069 350.78C191.917 353.072 185.06 355.904 185.06 355.904L185.122 362.71C185.122 362.71 185.905 375.358 188.089 383.104C189.489 388.069 189.823 391.208 192.722 395.476C193.96 397.299 196.346 399.8 196.346 399.8C196.346 399.8 193.251 402.072 191.071 401.776C188.682 401.451 187.609 399.897 186.274 397.891C185.259 396.364 185.171 395.245 184.628 393.494C183.031 388.34 182.84 379.794 182.84 379.794L178.784 358.254L175.819 355.69L177.824 375.325C177.824 375.325 179.2 377.066 178.922 378.256C178.504 380.041 174.526 379.902 174.526 379.902L179.354 392.797L180.256 422.87L175.858 421.844L180.028 432.982C180.028 432.982 181.957 436.234 182.114 438.552Z" fill="#A77B5A"/>
<path d="M221.733 329.501C218.501 333.658 212.56 339.384 212.56 339.384L210.634 340.715C210.634 340.715 212.363 344.056 212.758 346.388C214.055 354.039 207.996 357.707 203.207 363.813C200.449 367.328 195.331 372.111 195.331 372.111C195.331 372.111 198.305 374.722 200.584 374.663C202.203 374.621 203.106 374.086 204.467 373.209C205.659 372.441 207.101 370.709 207.101 370.709C207.101 370.709 209.405 363.207 211.653 358.74C214.205 353.669 219.656 346.606 219.656 346.606C219.656 346.606 222.293 342.93 223.735 340.421C227.211 334.368 228.341 330.488 230.233 323.769C232.012 317.448 233.286 307.233 233.286 307.233L232.465 310.807C232.465 310.807 226.901 322.855 221.733 329.501Z" fill="#CABD90"/>
<path d="M236.531 263.424C238.908 271.606 238.933 276.664 238.353 285.163C237.751 293.986 233.286 307.233 233.286 307.233C233.286 307.233 232.012 317.448 230.233 323.769C228.341 330.488 227.211 334.368 223.735 340.421C222.293 342.93 219.656 346.606 219.656 346.606L244.447 330.251C244.298 327.402 244.303 324.58 244.578 320.946C245.533 308.343 248.311 301.398 253.26 289.767C255.648 284.154 257.701 279.636 260.054 275.434C259.643 274.079 258.858 271.437 258.125 268.631C257.559 266.467 257.024 264.206 256.712 262.363C255.727 256.527 256.112 247.204 256.112 247.204C256.112 247.204 247.558 247.488 242.654 249.596C238.754 251.273 233.612 255.629 233.612 255.629C233.612 255.629 235.624 260.303 236.531 263.424Z" fill="#292E18"/>
<path d="M177.824 375.325L175.819 355.69C174.134 353.283 173.008 353.899 170.842 351.912C169.302 350.5 167.052 346.558 167.052 346.558L151.971 342.038L139.027 336.564L136.984 335.189L140.596 340.755L148.239 349.934C148.239 349.934 156.025 358.042 161.451 362.761C167.532 368.051 177.824 375.325 177.824 375.325Z" fill="#6D4646"/>
<path d="M131.615 279.88C131.983 273.499 134.772 263.82 134.772 263.82L135.999 260.292L120.587 246.304L122.885 274.567C122.885 274.567 128.341 285.03 129.099 291.164C129.573 294.999 129.15 295.723 129.032 298.641C128.837 303.451 128.642 306.16 127.895 310.916C127.344 314.423 125.031 316.425 126.068 319.819C126.766 322.106 129.648 324.786 129.648 324.786C129.648 324.786 136.748 330.257 141.837 332.836C146.052 334.972 153.1 337.259 153.1 337.259C153.1 337.259 146.116 328.994 142.674 323.024C137.5 314.047 135.46 308.326 133.371 298.178C131.923 291.147 131.201 287.047 131.615 279.88Z" fill="#6D4646"/>
<path d="M115.365 236.484C118.837 241.39 120.587 246.304 120.587 246.304L135.999 260.292C135.999 260.292 139.269 245.747 143.899 237.575C146.99 232.121 150.166 228.812 153.727 225.259C153.727 225.259 141.128 207.067 131.047 197.241C129.51 195.744 127.045 193.478 127.045 193.478L125.493 192.018L119.939 186.796L110.807 204.82C110.807 204.82 108.457 208.656 107.499 211.35C105.626 216.614 106.193 225.599 106.193 225.599C109.753 229.153 112.903 233.005 115.365 236.484Z" fill="#E9D9DF"/>
<path d="M131.047 197.241C141.128 207.067 153.727 225.259 153.727 225.259C154.895 224.094 156.105 222.902 157.366 221.6L180.742 176.776C180.742 176.776 175.014 162.827 170.436 154.342C165.214 144.661 155.287 130.595 155.287 130.595C155.287 130.595 144.669 148.155 139.246 160.095C133.506 172.733 127.045 193.478 127.045 193.478C127.045 193.478 129.51 195.744 131.047 197.241Z" fill="#DAB2B3"/>
<path d="M191.101 198.707C191.101 198.707 201.543 206.397 207.536 212.116L221.023 200.06C221.023 200.06 210.872 188.679 205.503 180.561C200.842 173.515 194.978 161.662 194.978 161.662L180.742 176.776L157.366 221.6C158.42 220.513 159.509 219.348 160.641 218.058C166.358 211.542 173.557 203.997 181.353 200.207C186.942 197.491 191.101 198.707 191.101 198.707Z" fill="#B9B5BB"/>
<path d="M222.718 229.258C225.361 233.687 226.236 236.502 228.231 241.258C230.549 246.784 233.612 255.629 233.612 255.629C233.612 255.629 238.754 251.273 242.654 249.596C247.558 247.488 256.112 247.204 256.112 247.204L250.731 232.833C250.731 232.833 244.544 220.763 239.64 213.622C234.656 206.364 225.444 196.108 225.444 196.108L221.023 200.06L207.536 212.116C214.005 218.29 218.136 221.579 222.718 229.258Z" fill="#D7D4D7"/>
<path d="M221.023 200.06L225.444 196.108C225.444 196.108 234.656 206.364 239.64 213.622C244.544 220.763 250.731 232.833 250.731 232.833L269.477 195.568C269.477 195.568 269.285 179.939 266.438 170.496C263.332 160.189 253.688 146.056 253.688 146.056L253.018 144.266L250.291 146.308C250.291 146.308 248.544 147.451 247.563 148.35C244.975 150.717 242.734 155.923 242.734 155.923C242.734 155.923 229.285 171.711 224.895 183.903C222.696 190.008 221.023 200.06 221.023 200.06Z" fill="#DAB2B3"/>
<path d="M256.112 247.204C256.112 247.204 255.727 256.527 256.712 262.363C257.024 264.206 257.559 266.467 258.125 268.631L294.333 223.512C294.333 223.512 294.085 214.186 293.088 208.316C292.006 201.952 291.193 198.349 288.803 192.353C286.841 187.429 282.592 180.286 282.592 180.286L279.497 183.892L269.477 195.568L250.731 232.833L256.112 247.204Z" fill="#B39394"/>
<path d="M282.592 180.286C282.592 180.286 286.841 187.429 288.803 192.353C291.193 198.349 292.006 201.952 293.088 208.316C294.085 214.186 294.333 223.512 294.333 223.512L308.755 190.808L308.562 174.287L308.085 133.701C308.085 133.701 296.895 140.893 292.693 147.913C290.61 151.394 288.658 157.484 288.658 157.484C288.658 157.484 286.95 166.223 285.155 171.433C283.339 176.707 279.497 183.892 279.497 183.892L282.592 180.286Z" fill="#AC6D75"/>
<path d="M294.333 223.512L258.125 268.631C258.858 271.437 259.643 274.079 260.054 275.434C262.917 270.325 266.225 265.684 271.124 260.112C282.013 247.726 287.727 243.796 301.474 236.481C301.474 236.481 312.166 219.464 315.421 208.61C319.552 194.836 322.613 172.497 322.613 172.497L317.636 177.535L308.755 190.808L294.333 223.512Z" fill="#6D4646"/>
<path d="M308.755 190.808L317.636 177.535C317.636 177.535 320.36 151.542 318.56 129.778C318.351 127.251 314.61 122.223 314.61 122.223L312.99 136.17L308.562 174.287L308.755 190.808Z" fill="#2F050A"/>
<path fill-rule="evenodd" clip-rule="evenodd" d="M288.747 143.274C288.934 138.874 288.999 134.363 288.139 128.967C286.533 118.894 282.695 110.747 279.134 103.19C277.145 98.9704 275.243 94.9343 273.865 90.8493L269.78 98.0937C269.78 98.0937 266.554 85.5691 271.749 85.1979C277.649 84.7763 283.024 91.0841 285.787 96.1212C289.255 102.442 290.514 108.744 290.514 108.744C290.514 108.744 294.757 117.973 294.845 124.266C294.949 131.774 288.747 143.274 288.747 143.274Z" fill="#80575A"/>
<path fill-rule="evenodd" clip-rule="evenodd" d="M288.654 145.303L288.654 145.295C288.666 145.044 288.678 144.794 288.689 144.543C288.678 144.796 288.666 145.049 288.654 145.303Z" fill="#292E18"/>
<path d="M292.693 147.913C296.895 140.893 308.085 133.701 308.085 133.701L308.562 174.287L312.99 136.17C312.99 136.17 305.755 120.193 302.957 109.376C300.747 100.832 299.131 87.1032 299.131 87.1032C299.131 87.1032 295.861 90.4073 294.326 92.9239C291.017 98.3495 290.514 108.744 290.514 108.744C290.514 108.744 294.757 117.973 294.845 124.266C294.949 131.774 288.747 143.274 288.747 143.274C288.735 143.536 288.724 143.797 288.712 144.058C288.706 144.192 288.7 144.325 288.693 144.459C288.692 144.487 288.691 144.515 288.689 144.543C288.678 144.794 288.666 145.044 288.654 145.295L288.654 145.303C288.631 145.787 288.608 146.272 288.586 146.758C288.434 150.159 288.334 153.615 288.658 157.484C288.658 157.484 290.61 151.394 292.693 147.913Z" fill="#623B40"/>
<path d="M261.016 110.231L269.78 98.0937C269.78 98.0937 266.827 87.9732 264.289 83.4292C262.806 80.7729 260.672 76.5291 260.672 76.5291C260.672 76.5291 250.662 82.5806 252.617 87.8L261.016 110.231Z" fill="#360F14"/>
<path d="M253.018 144.266L253.688 146.056C253.688 146.056 263.332 160.189 266.438 170.496C269.285 179.939 269.477 195.568 269.477 195.568L279.497 183.892C279.497 183.892 283.339 176.707 285.155 171.433C286.95 166.223 288.658 157.484 288.658 157.484C288.334 153.615 288.434 150.159 288.586 146.758C288.608 146.272 288.631 145.787 288.654 145.303L288.654 145.295C288.666 145.044 288.678 144.794 288.689 144.543L288.693 144.459C288.7 144.325 288.706 144.192 288.712 144.058C288.724 143.797 288.735 143.536 288.747 143.274C288.934 138.874 288.999 134.363 288.139 128.967C286.533 118.894 282.695 110.747 279.134 103.19C277.145 98.9704 275.243 94.9343 273.865 90.8493L269.78 98.0937L261.016 110.231L253.438 135.778C253.438 135.778 253.451 136.262 252.523 138.421C251.258 141.361 250.291 146.308 250.291 146.308L253.018 144.266Z" fill="#EBC7C8"/>
<path d="M194.978 161.662C194.978 161.662 200.842 173.515 205.503 180.561C210.872 188.679 221.023 200.06 221.023 200.06C221.023 200.06 222.696 190.008 224.895 183.903C229.285 171.711 242.734 155.923 242.734 155.923C242.734 155.923 239.96 150.861 239.13 146.299C236.585 132.296 223.416 112.692 223.416 112.692C223.416 112.692 220.848 118.041 218.776 121.214C214.858 127.215 206.544 134.895 206.544 134.895C206.544 134.895 200.448 141.038 197.647 144.153C195.931 151.491 194.978 161.662 194.978 161.662Z" fill="#DEDEE6"/>
<path d="M247.563 148.35C248.544 147.451 250.291 146.308 250.291 146.308C250.291 146.308 251.258 141.361 252.523 138.421C253.451 136.262 253.438 135.778 253.438 135.778L242.164 105.671C242.164 105.671 234.825 83.0245 229.263 76.3039C228.043 74.8298 224.487 77.3969 224.487 77.3969C224.487 77.3969 219.197 85.7749 217.454 92.712C216.135 97.9616 215.172 106.383 215.172 106.383C215.172 106.383 213.637 112.759 212.464 116.793C211.106 121.461 208.595 128.624 208.595 128.624L206.544 134.895C206.544 134.895 214.858 127.215 218.776 121.214C220.848 118.041 223.416 112.692 223.416 112.692C223.416 112.692 236.585 132.296 239.13 146.299C239.96 150.861 242.734 155.923 242.734 155.923C242.734 155.923 244.975 150.717 247.563 148.35Z" fill="#D3BCC4"/>
<path d="M155.287 130.595C155.287 130.595 165.214 144.661 170.436 154.342C175.014 162.827 180.742 176.776 180.742 176.776L194.978 161.662C194.978 161.662 195.931 151.491 197.647 144.153C195.954 137.606 196.679 132.666 194.809 126.167C191.743 115.513 191.353 108.962 186.354 99.0662C182.985 92.3963 175.885 83.0495 175.885 83.0495L174.462 80.8723L165.036 100.354L164.082 102.327C164.082 102.327 159.029 109.819 157.278 115.245C155.422 120.998 155.287 130.595 155.287 130.595Z" fill="#E9D9DF"/>
<path d="M197.647 144.153C200.448 141.038 206.544 134.895 206.544 134.895L208.595 128.624L197.373 100.231C197.373 100.231 190.098 88.1401 182.22 80.6774C180.838 79.368 177.432 79.7602 177.432 79.7602L175.885 83.0495C175.885 83.0495 182.985 92.3963 186.354 99.0662C191.353 108.962 191.743 115.513 194.809 126.167C196.679 132.666 195.954 137.606 197.647 144.153Z" fill="#6E474A"/>
<path d="M208.595 128.624C208.595 128.624 211.106 121.461 212.464 116.793C213.637 112.759 215.172 106.383 215.172 106.383C215.172 106.383 209.663 101.717 205.354 100.63C202.328 99.8663 197.373 100.231 197.373 100.231L208.595 128.624Z" fill="#5A1E26"/>
<path d="M128.114 170.19C128.401 178.771 125.493 192.018 125.493 192.018L127.045 193.478C127.045 193.478 133.506 172.733 139.246 160.095C144.669 148.155 155.287 130.595 155.287 130.595C155.287 130.595 155.422 120.998 157.278 115.245C159.029 109.819 164.082 102.327 164.082 102.327L165.036 100.354C165.036 100.354 162.979 87.8822 157.782 80.9812C156.969 79.9012 154.738 81.6383 153.13 82.7231C150.167 84.722 149.831 87.0132 147.811 89.9622C142.232 98.1067 136.363 99.8271 130.583 108.461C123.978 118.326 119.111 137.637 119.111 137.637C119.111 137.637 127.672 157.008 128.114 170.19Z" fill="#EBC7C8"/>
<path d="M110.807 204.82L119.939 186.796L125.493 192.018C125.493 192.018 128.401 178.771 128.114 170.19C127.672 157.008 119.111 137.637 119.111 137.637L116.463 125.452L112.286 119.411L100.329 105.032C100.329 105.032 91.9239 116.124 88.4679 124.231C85.4863 131.225 83.2126 142.978 83.2126 142.978C84.0512 151.606 85.7443 168.884 85.8075 168.975L110.807 204.82Z" fill="#D29D9E"/>
<path d="M83.4684 213.2C91.2397 213.206 99.4502 218.866 106.193 225.599C106.193 225.599 105.626 216.614 107.499 211.35C108.457 208.656 110.807 204.82 110.807 204.82L85.8075 168.975L80.4908 161.352C80.4908 161.352 75.3558 179.994 75.5982 192.182C75.7739 201.012 78.9328 214.55 78.9328 214.55C80.2518 213.901 82.0158 213.198 83.4684 213.2Z" fill="#D8D6DB"/>
<path d="M76.998 215.623C76.998 215.623 77.8019 215.106 78.9328 214.55C78.9328 214.55 75.7739 201.012 75.5982 192.182C75.3558 179.994 80.4908 161.352 80.4908 161.352L85.8075 168.975C85.7443 168.884 84.0512 151.606 83.2126 142.978C83.2126 142.978 82.3349 140.297 81.546 138.527C80.3494 135.841 78.7369 132.395 77.408 129.587C76.0372 126.691 74.9682 124.475 74.9682 124.475C74.9682 124.475 70.3657 160.124 72.1222 182.899C73.1157 195.781 76.998 215.623 76.998 215.623Z" fill="#5E1823"/>
<path d="M81.546 138.527C85.4063 129.296 85.78 123.294 91.0775 114.806L86.9244 98.6276C86.9244 98.6276 83.4328 108.424 81.4923 114.795C79.9758 119.775 78.0452 127.133 77.408 129.587C78.7369 132.395 80.3494 135.841 81.546 138.527Z" fill="#7D4852"/>
<path d="M81.546 138.527C82.3349 140.297 83.2126 142.978 83.2126 142.978C83.2126 142.978 85.4863 131.225 88.4679 124.231C91.9239 116.124 100.329 105.032 100.329 105.032L112.286 119.411C112.286 119.411 119.31 109.055 118.96 101.655C118.738 96.9702 115.325 87.9928 115.325 87.9928L111.85 78.7111C111.85 78.7111 108.939 78.6279 108.546 79.9481C106.258 87.6277 105.013 92.325 101.423 98.9103C98.4429 104.377 91.0775 114.806 91.0775 114.806C85.78 123.294 85.4063 129.296 81.546 138.527Z" fill="#79575A"/>
<path d="M112.286 119.411L116.463 125.452C117.866 116.74 120.336 109.073 124.285 101.181C128.093 93.5711 134.789 82.9246 134.789 82.9246C134.789 82.9246 128.933 82.1281 125.319 82.9147C121.042 83.8459 115.325 87.9928 115.325 87.9928C115.325 87.9928 118.738 96.9702 118.96 101.655C119.31 109.055 112.286 119.411 112.286 119.411Z" fill="#7D4852"/>
<path d="M184.997 417.028C184.997 417.028 186.926 420.281 187.083 422.599C188.634 445.501 191.267 485.526 191.267 485.526L216.751 475.983L214.728 435.73M184.997 417.028L180.826 405.891M184.997 417.028C184.997 417.028 175.578 410.739 170.106 406.569C156.093 395.891 137.347 374.361 137.347 374.361L117.185 353.818L114.916 350.24C114.916 350.24 107.567 344.866 102.868 340.789C91.8394 331.223 88.3556 324.062 82.8588 311.071C77.4091 298.191 77.0539 290.405 76.4828 276.507C75.9449 263.419 80.3098 257.084 79.5617 244.58C78.877 233.138 77.1294 226.752 73.6627 215.826C71.6739 209.558 68.0809 201.578 65.4587 196.068M180.826 405.891L185.224 406.917L184.323 376.844L179.494 363.949M180.826 405.891C180.826 405.891 160.902 389.699 148.996 378.374C138.458 368.351 123.116 351.597 123.116 351.597M179.494 363.949C179.494 363.949 183.473 364.088 183.891 362.303C184.169 361.113 182.793 359.372 182.793 359.372M179.494 363.949C179.494 363.949 167.287 353.898 159.533 346.705C151.715 339.452 139.699 326.998 139.699 326.998L129.484 315.643C129.484 315.643 120.312 310.754 116.099 305.828C113.363 302.63 112.315 300.431 110.387 296.69C105.972 288.125 104.086 273.748 104.086 273.748M182.793 359.372C182.793 359.372 181.571 347.405 180.788 339.737M182.793 359.372C182.793 359.372 172.501 352.098 166.42 346.808C160.994 342.089 153.208 333.981 153.208 333.981L145.565 324.801L141.953 319.236M182.793 359.372L180.788 339.737M180.788 339.737C181.946 340.738 183.753 342.301 183.753 342.301M180.788 339.737C179.103 337.33 177.976 337.945 175.811 335.959C174.271 334.547 172.021 330.605 172.021 330.605M180.788 339.737L183.753 342.301M183.753 342.301L187.808 363.841C187.808 363.841 187.999 372.387 189.597 377.541C190.139 379.292 190.227 380.411 191.243 381.937C192.578 383.944 193.651 385.498 196.039 385.822C198.219 386.119 201.315 383.847 201.315 383.847C201.315 383.847 198.929 381.346 197.691 379.523C194.792 375.255 194.458 372.116 193.058 367.151C190.874 359.405 190.091 346.757 190.091 346.757L190.028 339.951M183.753 342.301C183.753 342.301 183.366 320.007 183.737 305.73C184.358 281.83 186.047 268.487 188.033 244.662C188.248 242.093 188.591 238.086 188.591 238.086M190.028 339.951C190.028 339.951 196.886 337.119 201.037 334.827C207.09 331.486 215.603 324.762 215.603 324.762M190.028 339.951C190.028 339.951 186.954 321.309 187.041 309.271C187.123 297.775 189.493 291.477 190.177 280.002C190.842 268.868 191.638 262.546 190.573 251.443C190.069 246.194 188.591 238.086 188.591 238.086M212.504 196.163C218.973 202.337 223.105 205.626 227.687 213.305C230.329 217.734 231.205 220.549 233.2 225.305C235.517 230.831 238.581 239.676 238.581 239.676M212.504 196.163C206.512 190.444 196.069 182.753 196.069 182.753C196.069 182.753 191.911 181.538 186.322 184.254C178.526 188.044 171.327 195.588 165.61 202.105C164.478 203.395 163.388 204.56 162.335 205.647M212.504 196.163L230.412 180.155M212.504 196.163L225.992 184.107M158.069 321.306C158.069 321.306 151.084 313.041 147.643 307.071C142.469 298.094 140.429 292.373 138.339 282.224C136.892 275.194 136.17 271.094 136.583 263.927C136.952 257.546 139.741 247.867 139.741 247.867L140.968 244.339M158.069 321.306C158.069 321.306 151.021 319.019 146.805 316.883C141.717 314.304 134.617 308.833 134.617 308.833C134.617 308.833 131.735 306.153 131.037 303.866C130 300.472 132.313 298.47 132.864 294.963C133.61 290.207 133.806 287.498 134.001 282.688C134.119 279.77 134.542 279.046 134.068 275.211C133.31 269.077 127.853 258.614 127.853 258.614M158.069 321.306L172.021 330.605M127.853 258.614C127.853 258.614 116.32 249.005 107.536 244.626C103.072 242.401 94.7894 240.242 94.7894 240.242M127.853 258.614L125.556 230.351M94.7894 240.242L90.9288 238.611C90.9288 238.611 93.0132 242.711 93.5204 245.532C93.9663 248.012 93.3581 249.429 93.6282 251.935C94.3923 259.023 95.8789 263.236 100.03 269.032C101.445 271.007 104.086 273.748 104.086 273.748M94.7894 240.242C94.7894 240.242 90.3193 227.218 90.4951 225.216C90.6708 223.214 89.6761 222.729 89.8518 220.727L81.9667 199.669M172.021 330.605L156.94 326.085L143.996 320.611L141.953 319.236M104.086 273.748C104.086 273.748 105.907 275.617 106.832 276.998C108.737 279.844 108.706 282.004 109.907 285.211C111.721 290.055 111.285 293.605 114.552 297.615C116.953 300.562 122.3 303.506 122.3 303.506L135.054 314.594L141.953 319.236M123.116 351.597L115.761 343.161C115.761 343.161 102.509 327.151 101.104 313.355C100.651 308.905 97.5879 301.483 97.5879 301.483M123.116 351.597C123.116 351.597 114.918 347.179 110.184 343.592C102.07 337.445 97.8935 333.158 92.2121 324.711C85.9832 315.45 83.3623 309.352 80.8981 298.467C78.7652 289.045 79.0261 283.435 79.3348 273.779C79.6186 264.906 81.1385 259.943 81.2765 251.066C81.3689 245.127 81.6794 241.878 81.224 236.019C80.8634 231.38 80.2687 229.239 79.238 224.701C77.6449 217.688 76.5635 214.678 73.0741 208.24C70.5921 203.661 65.4587 196.068 65.4587 196.068M81.9667 199.669L62.2623 189.562C62.2623 189.562 63.6225 192.209 65.4587 196.068M81.9667 199.669C81.9667 199.669 82.7706 199.153 83.9016 198.596M81.9667 199.669C81.9667 199.669 78.0845 179.828 77.091 166.946C75.3345 144.17 79.9369 108.522 79.9369 108.522C79.9369 108.522 81.006 110.738 82.3767 113.634M125.556 230.351C125.556 230.351 123.806 225.437 120.333 220.531C117.872 217.052 114.721 213.2 111.162 209.646M125.556 230.351L140.968 244.339M140.968 244.339C140.968 244.339 144.238 229.794 148.868 221.622C151.959 216.167 155.135 212.859 158.696 209.306M214.728 435.73C214.728 435.73 211.074 434.107 209.997 432.021C208.648 429.41 208.314 426.448 210.528 424.515C211.633 423.55 214.045 423.198 214.045 423.198M214.728 435.73L273.597 376.888M214.728 435.73L263.846 386.635M214.045 423.198L212.07 354.756M214.045 423.198C214.045 423.198 234.684 405.74 245.809 392.587M212.07 354.756C212.07 354.756 210.628 356.488 209.436 357.256C208.075 358.133 207.172 358.668 205.553 358.71C203.273 358.768 200.3 356.158 200.3 356.158C200.3 356.158 205.418 351.375 208.175 347.859C212.965 341.754 219.024 338.086 217.727 330.435C217.331 328.103 215.603 324.762 215.603 324.762M212.07 354.756C212.07 354.756 214.374 347.254 216.622 342.787C219.173 337.716 224.624 330.653 224.624 330.653M215.603 324.762L217.529 323.431C217.529 323.431 223.47 317.705 226.702 313.547C231.869 306.902 237.434 294.854 237.434 294.854L238.255 291.28M238.255 291.28C238.255 291.28 242.72 278.033 243.322 269.21C243.902 260.711 243.876 255.652 241.5 247.471C240.593 244.35 238.581 239.676 238.581 239.676M238.255 291.28C238.255 291.28 236.981 301.495 235.201 307.816C233.31 314.535 232.18 318.414 228.703 324.468C227.262 326.977 224.624 330.653 224.624 330.653M238.581 239.676C238.581 239.676 243.723 235.32 247.623 233.643C252.527 231.535 261.081 231.25 261.081 231.25M261.081 231.25C261.081 231.25 260.696 240.574 261.681 246.409C261.992 248.253 262.528 250.514 263.093 252.677M261.081 231.25L255.7 216.88M265.314 260.428C265.314 260.428 265.205 260.08 265.023 259.481M249.846 314.014L249.416 314.298M224.624 330.653L249.416 314.298M245.809 392.587C251.717 385.601 256.705 380.909 258.33 371.905C259.504 365.4 257.346 357.185 257.346 357.185C257.346 357.185 251.406 336.606 250.145 323.035C249.83 319.644 249.556 316.959 249.416 314.298M245.809 392.587C245.809 392.587 259.741 379.346 267.736 370.012C275.193 361.305 279.279 356.272 285.499 346.643C294.17 333.219 297.606 324.782 303.916 310.099C307.482 301.801 312.311 288.55 312.311 288.55M273.597 376.888C273.597 376.888 304.16 370.91 320.754 360.732C333.759 352.756 342.289 348.455 350.069 334.911C357.641 321.729 359.386 313.579 361.137 297.591C362.528 284.901 362.112 276.99 361.733 264.709C361.286 250.222 359.579 240.761 355.116 227.042C352.282 218.333 345.641 204.773 345.641 204.773C345.641 204.773 324.016 212.226 313.493 217.888C312.298 218.531 307.574 219.926 306.443 220.528M273.597 376.888L263.846 386.635M328.268 247.588L312.311 288.55M312.311 288.55C312.311 288.55 308.909 302.444 306.145 311.174C302.306 323.302 300.25 330.239 294.582 341.627C290.225 350.382 281.756 363.133 281.756 363.133L263.846 386.635M111.162 209.646C104.419 202.913 96.2084 197.253 88.4372 197.247C86.9845 197.245 85.2206 197.948 83.9016 198.596M111.162 209.646C111.162 209.646 110.594 200.661 112.467 195.397C113.426 192.703 115.776 188.866 115.776 188.866M158.696 209.306C158.696 209.306 146.096 191.114 136.015 181.288C134.479 179.79 132.014 177.525 132.014 177.525M158.696 209.306C159.864 208.141 161.073 206.949 162.335 205.647M83.9016 198.596C83.9016 198.596 80.7426 185.059 80.567 176.229C80.3246 164.041 85.4596 145.399 85.4596 145.399L90.7763 153.022M115.776 188.866L124.908 170.843L130.462 176.065M115.776 188.866L90.7763 153.022M88.1814 127.025C89.02 135.653 90.7131 152.931 90.7763 153.022M88.1814 127.025C88.1814 127.025 87.3036 124.344 86.5147 122.574M88.1814 127.025C88.1814 127.025 90.4551 115.272 93.4366 108.278C96.8926 100.171 105.297 89.079 105.297 89.079L117.255 103.458M121.432 109.499C122.466 114.258 124.08 121.684 124.08 121.684M121.432 109.499C119.801 107.14 117.255 103.458 117.255 103.458M121.432 109.499C122.834 100.787 125.305 93.1196 129.254 85.2279C133.061 77.618 139.758 66.9714 139.758 66.9714C139.758 66.9714 133.902 66.1749 130.288 66.9616C126.01 67.8928 120.294 72.0397 120.294 72.0397M121.432 109.499L124.08 121.684M121.432 109.499L117.255 103.458M130.462 176.065C130.462 176.065 133.37 162.818 133.082 154.237C132.64 141.054 124.08 121.684 124.08 121.684M130.462 176.065L132.014 177.525M132.014 177.525C132.014 177.525 138.475 156.78 144.215 144.142C149.637 132.202 160.256 114.642 160.256 114.642M160.256 114.642C160.256 114.642 170.182 128.708 175.405 138.389C179.982 146.874 185.71 160.822 185.71 160.822M160.256 114.642C160.256 114.642 160.391 105.045 162.247 99.2921C163.998 93.8656 169.05 86.3734 169.05 86.3734L170.005 84.4006M185.71 160.822L162.335 205.647M185.71 160.822L199.946 145.708M199.946 145.708C199.946 145.708 205.811 157.562 210.472 164.608C215.841 172.726 225.992 184.107 225.992 184.107M199.946 145.708C199.946 145.708 200.9 135.538 202.616 128.2M225.992 184.107C225.992 184.107 227.665 174.055 229.863 167.95C234.254 155.758 247.703 139.97 247.703 139.97M225.992 184.107L230.412 180.155M230.412 180.155C230.412 180.155 239.625 190.411 244.609 197.668C249.513 204.81 255.7 216.88 255.7 216.88M255.7 216.88L274.446 179.615M274.446 179.615L284.466 167.939M274.446 179.615C274.446 179.615 274.253 163.986 271.407 154.543C268.3 144.236 258.657 130.103 258.657 130.103L257.987 128.313L255.259 130.355M299.302 207.559C299.302 207.559 299.054 198.233 298.056 192.363C296.975 185.999 296.162 182.395 293.772 176.4C291.81 171.476 287.561 164.333 287.561 164.333L284.466 167.939M299.302 207.559L263.093 252.677M299.302 207.559L313.724 174.855M263.093 252.677C263.827 255.484 264.611 258.126 265.023 259.481M306.443 220.528C292.696 227.843 286.982 231.773 276.092 244.159C271.194 249.731 267.886 254.372 265.023 259.481M306.443 220.528C306.443 220.528 317.135 203.511 320.39 192.656C324.52 178.883 327.581 156.543 327.581 156.543L322.604 161.582M313.724 174.855L322.604 161.582M313.724 174.855L313.53 158.334M284.466 167.939C284.466 167.939 288.307 160.754 290.124 155.48C291.919 150.27 293.626 141.531 293.626 141.531M293.626 141.531C293.626 141.531 295.579 135.441 297.662 131.96C301.863 124.939 313.054 117.748 313.054 117.748L313.53 158.334M293.626 141.531C293.302 137.662 293.402 134.206 293.555 130.805C293.577 130.319 293.6 129.834 293.623 129.349M293.107 113.014C293.967 118.41 293.903 122.921 293.715 127.321M293.107 113.014C291.502 102.941 287.663 94.7944 284.102 87.2372C282.114 83.0173 280.212 78.9812 278.834 74.8962L274.749 82.1406M293.107 113.014C294.018 118.73 293.892 123.455 293.681 128.105M265.985 94.2782C269.407 89.5382 274.749 82.1406 274.749 82.1406M265.985 94.2782C260.36 79.258 263.21 86.8672 257.585 71.8469M265.985 94.2782C263.025 104.255 258.407 119.825 258.407 119.825M265.985 94.2782L274.749 82.1406M265.985 94.2782L257.585 71.8469M265.985 94.2782L258.407 119.825M255.259 130.355C255.259 130.355 253.513 131.498 252.532 132.397C249.944 134.764 247.703 139.97 247.703 139.97M255.259 130.355C255.259 130.355 256.227 125.408 257.491 122.467C258.419 120.309 258.407 119.825 258.407 119.825M322.604 161.582C322.604 161.582 325.329 135.589 323.529 113.825C323.32 111.298 319.579 106.27 319.579 106.27L317.959 120.217M313.53 158.334L317.959 120.217M317.959 120.217C317.959 120.217 310.724 104.24 307.926 93.4228C305.715 84.8786 304.1 71.1501 304.1 71.1501C304.1 71.1501 300.83 74.4542 299.295 76.9707C295.986 82.3964 295.483 92.7907 295.483 92.7907M295.483 92.7907C295.483 92.7907 299.726 102.02 299.813 108.313C299.918 115.821 293.715 127.321 293.715 127.321M295.483 92.7907C295.483 92.7907 294.224 86.4892 290.756 80.1681C287.993 75.131 282.617 68.8232 276.718 69.2447C271.522 69.616 274.749 82.1406 274.749 82.1406M293.715 127.321C293.704 127.583 293.692 127.844 293.681 128.105M274.749 82.1406C274.749 82.1406 271.796 72.0201 269.258 67.4761C267.774 64.8198 265.641 60.576 265.641 60.576C265.641 60.576 255.631 66.6275 257.585 71.8469M202.616 128.2C205.417 125.085 211.512 118.942 211.512 118.942M202.616 128.2C200.923 121.652 201.648 116.713 199.778 110.214C196.712 99.5594 196.322 93.0087 191.323 83.113C187.954 76.4432 180.854 67.0964 180.854 67.0964M211.512 118.942C211.512 118.942 219.827 111.262 223.745 105.261C225.816 102.087 228.385 96.7385 228.385 96.7385C228.385 96.7385 241.554 116.343 244.099 130.346C244.929 134.908 247.703 139.97 247.703 139.97M211.512 118.942L213.563 112.671M258.407 119.825L247.133 89.7182C247.133 89.7182 239.794 67.0714 234.232 60.3508C233.012 58.8767 229.455 61.4438 229.455 61.4438C229.455 61.4438 224.166 69.8218 222.423 76.7589C221.104 82.0085 220.141 90.4301 220.141 90.4301M180.854 67.0964L179.431 64.9192L170.005 84.4006M180.854 67.0964L182.401 63.8071C182.401 63.8071 185.807 63.4149 187.189 64.7242C195.066 72.187 202.342 84.2783 202.342 84.2783M202.342 84.2783L213.563 112.671M202.342 84.2783C202.342 84.2783 207.297 83.9132 210.322 84.6765C214.632 85.7637 220.141 90.4301 220.141 90.4301M213.563 112.671C213.563 112.671 216.075 105.507 217.433 100.84C218.606 96.8062 220.141 90.4301 220.141 90.4301M124.08 121.684C124.08 121.684 128.947 102.373 135.551 92.5082C141.332 83.8739 147.201 82.1536 152.78 74.0091C154.8 71.0601 155.136 68.7689 158.099 66.77C159.707 65.6852 161.937 63.9481 162.751 65.0281C167.948 71.9291 170.005 84.4006 170.005 84.4006M86.5147 122.574C90.3751 113.342 90.7488 107.341 96.0463 98.8528M86.5147 122.574C85.3181 119.888 83.7057 116.442 82.3767 113.634M96.0463 98.8528C96.0463 98.8528 103.412 88.4234 106.391 82.9571C109.981 76.3719 111.227 71.6746 113.515 63.995C113.908 62.6747 116.818 62.758 116.818 62.758L120.294 72.0397M96.0463 98.8528L91.8932 82.6745C91.8932 82.6745 88.4016 92.4704 86.4611 98.8422C84.9446 103.821 83.0139 111.18 82.3767 113.634M117.255 103.458C117.255 103.458 124.278 93.1014 123.928 85.7022C123.707 81.0171 120.294 72.0397 120.294 72.0397M82.162 114.464C82.162 114.464 82.2393 114.163 82.3767 113.634M190.622 200.632L190.025 221.174L188.591 238.086M265.023 259.481C262.669 263.682 260.617 268.201 258.228 273.814C253.28 285.445 250.502 292.39 249.547 304.993C249.271 308.627 249.266 311.449 249.416 314.298M293.623 129.349L293.623 129.342M293.623 129.349C293.634 129.096 293.646 128.843 293.658 128.59M293.623 129.349C293.623 129.347 293.623 129.345 293.623 129.342M293.623 129.342C293.635 129.091 293.647 128.84 293.658 128.59M293.658 128.59C293.66 128.562 293.661 128.534 293.662 128.506M293.658 128.59L293.662 128.506M293.662 128.506C293.668 128.372 293.674 128.239 293.681 128.105" stroke="#292E18"/>
</svg>
